# Blender v2.79 (sub 0) OBJ File: 'hammer.blend'
# www.blender.org
mtllib hammer.mtl
o Cylinder.001_Cylinder.014
v 0.000000 3.648113 0.012671
v 0.000000 3.857147 0.012671
v 0.056896 3.648113 0.046956
v 0.056896 3.857147 0.046956
v 0.092060 3.648113 0.136714
v 0.073750 3.857147 0.136714
v 0.092060 3.648113 0.247662
v 0.073750 3.857147 0.247662
v 0.056896 3.648113 0.337420
v 0.056896 3.857147 0.337420
v -0.000000 3.648113 0.371705
v -0.000000 3.857147 0.371705
v -0.056896 3.648113 0.337420
v -0.056896 3.857147 0.337420
v -0.092060 3.648113 0.247662
v -0.092060 3.857147 0.247662
v -0.092060 3.648113 0.136714
v -0.092060 3.857147 0.136714
v -0.056896 3.648113 0.046956
v -0.056896 3.857147 0.046956
v -0.000000 3.496028 -0.031332
v 0.070842 3.496028 0.011357
v 0.114626 3.496028 0.123117
v 0.114626 3.496028 0.261259
v 0.070842 3.496028 0.373019
v -0.000000 3.496028 0.415708
v -0.070842 3.496028 0.373019
v -0.114626 3.496028 0.261260
v -0.114626 3.496028 0.123117
v -0.070842 3.496028 0.011357
v -0.000000 3.098018 0.003240
v 0.059885 3.098018 0.039326
v 0.096896 3.098018 0.133800
v 0.096896 3.098018 0.250576
v 0.059885 3.098018 0.345050
v -0.000000 3.098018 0.381136
v -0.059885 3.098018 0.345050
v -0.096896 3.098018 0.250576
v -0.096896 3.098018 0.133800
v -0.059885 3.098018 0.039326
v 0.000000 2.475664 0.003240
v 0.059885 2.475664 0.039326
v 0.096896 2.475664 0.133800
v 0.096896 2.475664 0.250576
v 0.059885 2.475664 0.345050
v 0.000000 2.475664 0.381136
v -0.059885 2.475664 0.345050
v -0.096896 2.475664 0.250576
v -0.096896 2.475664 0.133800
v -0.059885 2.475664 0.039326
v -0.000000 1.869000 -0.043451
v 0.074684 1.869000 0.001552
v 0.120841 1.869000 0.119372
v 0.120841 1.869000 0.265005
v 0.074684 1.869000 0.382824
v -0.000000 1.869000 0.427827
v -0.074684 1.869000 0.382824
v -0.120841 1.869000 0.265005
v -0.120841 1.869000 0.119372
v -0.074684 1.869000 0.001552
v -0.000000 0.611856 -0.043451
v 0.074683 0.611856 0.001552
v 0.120840 0.611856 0.119372
v 0.120840 0.611856 0.265005
v 0.074683 0.611856 0.382824
v -0.000000 0.611856 0.427827
v -0.074684 0.611856 0.382824
v -0.120841 0.611856 0.265005
v -0.120841 0.611856 0.119372
v -0.074684 0.611856 0.001552
v -0.000002 -0.254840 -0.086501
v 0.088326 -0.254840 -0.033276
v 0.142916 -0.254840 0.106068
v 0.142916 -0.254840 0.278308
v 0.088326 -0.254840 0.417653
v -0.000002 -0.254840 0.470877
v -0.088330 -0.254840 0.417653
v -0.142919 -0.254840 0.278308
v -0.142919 -0.254840 0.106068
v -0.088330 -0.254840 -0.033276
v -0.000002 -0.353066 0.048333
v 0.045592 -0.353066 0.075807
v 0.073770 -0.353066 0.147735
v 0.073770 -0.353066 0.236642
v 0.045592 -0.353066 0.308569
v -0.000002 -0.353066 0.336043
v -0.045595 -0.353066 0.308569
v -0.073773 -0.353066 0.236642
v -0.073773 -0.353066 0.147735
v -0.045595 -0.353066 0.075807
vn 0.5161 0.0000 -0.8565
vn 0.9596 0.0420 -0.2781
vn 0.9962 0.0873 0.0000
vn 0.9596 0.0420 0.2781
vn 0.5161 0.0000 0.8565
vn -0.5161 0.0000 0.8565
vn -0.9311 0.0000 0.3648
vn -1.0000 0.0000 0.0000
vn 0.0000 1.0000 0.0000
vn -0.9311 0.0000 -0.3648
vn -0.5161 0.0000 -0.8565
vn -0.9178 0.1683 0.3596
vn -0.9299 -0.0512 0.3643
vn -0.5010 0.2405 0.8314
vn 0.5010 0.2405 0.8314
vn 0.9178 0.1683 0.3596
vn 0.5010 0.2405 -0.8314
vn 0.9892 0.1468 0.0000
vn 0.9178 0.1683 -0.3596
vn -0.5010 0.2405 -0.8314
vn -0.9178 0.1683 -0.3596
vn -0.9892 0.1468 0.0000
vn 0.9311 0.0000 0.3648
vn 0.9299 -0.0512 0.3643
vn 0.5147 -0.0742 -0.8542
vn -0.9990 -0.0445 0.0000
vn 0.5147 -0.0742 0.8542
vn 0.9299 -0.0512 -0.3643
vn -0.9299 -0.0512 -0.3643
vn -0.5147 -0.0742 0.8542
vn 0.9990 -0.0445 0.0000
vn -0.5147 -0.0742 -0.8542
vn 0.5150 0.0658 -0.8547
vn 0.9311 0.0000 -0.3648
vn 1.0000 0.0000 0.0000
vn -0.9992 0.0394 0.0000
vn 0.5150 0.0658 0.8547
vn 0.9301 0.0454 -0.3644
vn -0.9301 0.0454 -0.3644
vn -0.5150 0.0658 0.8547
vn 0.9992 0.0394 0.0000
vn -0.5150 0.0658 -0.8547
vn -0.9301 0.0454 0.3644
vn 0.9301 0.0454 0.3644
vn 0.9307 0.0293 -0.3646
vn -0.7235 -0.6295 -0.2834
vn -0.9307 0.0293 -0.3646
vn -0.5157 0.0425 0.8557
vn 0.9997 0.0255 0.0000
vn -0.5157 0.0425 -0.8557
vn -0.9307 0.0293 0.3646
vn 0.9307 0.0293 0.3646
vn 0.5157 0.0425 -0.8557
vn -0.9997 0.0255 0.0000
vn 0.5157 0.0425 0.8557
vn 0.0000 -1.0000 0.0000
vn -0.3344 -0.7617 0.5549
vn 0.8177 -0.5756 0.0000
vn -0.3344 -0.7617 -0.5549
vn -0.7235 -0.6295 0.2834
vn 0.7235 -0.6295 0.2834
vn 0.3344 -0.7617 -0.5549
vn -0.8177 -0.5756 0.0000
vn 0.3344 -0.7617 0.5549
vn 0.7235 -0.6295 -0.2834
usemtl Material.007
s off
f 1//1 2//1 4//1 3//1
f 3//2 4//2 6//2 5//2
f 5//3 6//3 8//3 7//3
f 7//4 8//4 10//4 9//4
f 9//5 10//5 12//5 11//5
f 11//6 12//6 14//6 13//6
f 13//7 14//7 16//7 15//7
f 15//8 16//8 18//8 17//8
f 4//9 2//9 20//9 18//9 16//9 14//9 12//9 10//9 8//9 6//9
f 17//10 18//10 20//10 19//10
f 19//11 20//11 2//11 1//11
f 13//12 15//12 28//12 27//12
f 27//13 28//13 38//13 37//13
f 11//14 13//14 27//14 26//14
f 9//15 11//15 26//15 25//15
f 7//16 9//16 25//16 24//16
f 1//17 3//17 22//17 21//17
f 5//18 7//18 24//18 23//18
f 3//19 5//19 23//19 22//19
f 19//20 1//20 21//20 30//20
f 17//21 19//21 30//21 29//21
f 15//22 17//22 29//22 28//22
f 34//23 35//23 45//23 44//23
f 24//24 25//24 35//24 34//24
f 21//25 22//25 32//25 31//25
f 28//26 29//26 39//26 38//26
f 25//27 26//27 36//27 35//27
f 22//28 23//28 33//28 32//28
f 29//29 30//29 40//29 39//29
f 26//30 27//30 37//30 36//30
f 23//31 24//31 34//31 33//31
f 30//32 21//32 31//32 40//32
f 41//33 42//33 52//33 51//33
f 31//1 32//1 42//1 41//1
f 38//8 39//8 49//8 48//8
f 35//5 36//5 46//5 45//5
f 32//34 33//34 43//34 42//34
f 39//10 40//10 50//10 49//10
f 36//6 37//6 47//6 46//6
f 33//35 34//35 44//35 43//35
f 40//11 31//11 41//11 50//11
f 37//7 38//7 48//7 47//7
f 55//5 56//5 66//5 65//5
f 48//36 49//36 59//36 58//36
f 45//37 46//37 56//37 55//37
f 42//38 43//38 53//38 52//38
f 49//39 50//39 60//39 59//39
f 46//40 47//40 57//40 56//40
f 43//41 44//41 54//41 53//41
f 50//42 41//42 51//42 60//42
f 47//43 48//43 58//43 57//43
f 44//44 45//44 55//44 54//44
f 62//45 63//45 73//45 72//45
f 52//34 53//34 63//34 62//34
f 59//10 60//10 70//10 69//10
f 56//6 57//6 67//6 66//6
f 53//35 54//35 64//35 63//35
f 60//11 51//11 61//11 70//11
f 57//7 58//7 68//7 67//7
f 54//23 55//23 65//23 64//23
f 51//1 52//1 62//1 61//1
f 58//8 59//8 69//8 68//8
f 79//46 80//46 90//46 89//46
f 69//47 70//47 80//47 79//47
f 66//48 67//48 77//48 76//48
f 63//49 64//49 74//49 73//49
f 70//50 61//50 71//50 80//50
f 67//51 68//51 78//51 77//51
f 64//52 65//52 75//52 74//52
f 61//53 62//53 72//53 71//53
f 68//54 69//54 79//54 78//54
f 65//55 66//55 76//55 75//55
f 81//56 82//56 83//56 84//56 85//56 86//56 87//56 88//56 89//56 90//56
f 76//57 77//57 87//57 86//57
f 73//58 74//58 84//58 83//58
f 80//59 71//59 81//59 90//59
f 77//60 78//60 88//60 87//60
f 74//61 75//61 85//61 84//61
f 71//62 72//62 82//62 81//62
f 78//63 79//63 89//63 88//63
f 75//64 76//64 86//64 85//64
f 72//65 73//65 83//65 82//65
o Cylinder_Cylinder.011
v 0.000000 4.406255 0.879230
v 0.000000 4.406255 1.132412
v 0.113957 4.369228 0.879230
v 0.113957 4.369228 1.132412
v 0.184386 4.272290 0.879230
v 0.184386 4.272290 1.132412
v 0.184386 4.152469 0.879230
v 0.184386 4.152469 1.132412
v 0.113957 4.055531 0.879230
v 0.113957 4.055531 1.132412
v -0.000000 4.018504 0.879230
v -0.000000 4.018504 1.132412
v -0.113957 4.055531 0.879230
v -0.113957 4.055531 1.132412
v -0.184386 4.152469 0.879230
v -0.184386 4.152469 1.132412
v -0.184386 4.272290 0.879230
v -0.184386 4.272290 1.132412
v -0.113957 4.369228 0.879230
v -0.113957 4.369228 1.132412
v 0.184386 4.272290 0.879230
v 0.184386 4.152469 0.879230
v 0.000000 4.352444 0.712665
v 0.082328 4.325694 0.712665
v 0.133209 4.255661 0.712665
v 0.133209 4.169097 0.712665
v 0.082328 4.099065 0.712665
v -0.000000 4.072315 0.712665
v -0.082328 4.099065 0.712665
v -0.133209 4.169097 0.712665
v -0.133209 4.255661 0.712665
v -0.082328 4.325694 0.712665
v -0.000000 4.424795 0.498862
v 0.082328 4.384227 0.498862
v 0.133209 4.278019 0.498862
v 0.133209 4.146739 0.498862
v 0.082328 4.040532 0.498862
v -0.000000 3.999964 0.498862
v -0.082328 4.040532 0.498862
v -0.133209 4.146739 0.498862
v -0.133209 4.278019 0.498862
v -0.082328 4.384227 0.498862
v -0.000000 4.463080 0.385412
v 0.097166 4.415200 0.385412
v 0.157218 4.289850 0.385412
v 0.157218 4.134909 0.385412
v 0.097166 4.009559 0.385412
v -0.000000 3.961679 0.385412
v -0.097166 4.009559 0.385412
v -0.157218 4.134909 0.385412
v -0.157218 4.289850 0.385412
v -0.097166 4.415200 0.385412
v -0.000000 4.463080 -0.011974
v 0.097166 4.415200 -0.011974
v 0.157218 4.289850 -0.011974
v 0.157218 4.134909 -0.011974
v 0.097166 4.009559 -0.011974
v -0.000000 3.961679 -0.011974
v -0.097166 4.009559 -0.011974
v -0.157218 4.134909 -0.011974
v -0.157218 4.289850 -0.011974
v -0.097166 4.415200 -0.011974
v -0.000000 4.463080 -0.093269
v 0.097166 4.415200 -0.093269
v 0.157218 4.289850 -0.093269
v 0.157218 4.171196 -0.093269
v 0.097166 4.091403 -0.089864
v -0.000000 4.043524 -0.089864
v -0.097166 4.091403 -0.089864
v -0.157218 4.171196 -0.093269
v -0.157218 4.289850 -0.093269
v -0.097166 4.415200 -0.093269
v -0.000000 4.411153 -0.204941
v 0.097166 4.363274 -0.204941
v 0.157218 4.288871 -0.204941
v 0.157218 4.170218 -0.204941
v 0.097166 4.125787 -0.201537
v -0.000000 4.113311 -0.201537
v -0.097166 4.128316 -0.201537
v -0.157218 4.167689 -0.204941
v -0.157218 4.288871 -0.204941
v -0.097166 4.363274 -0.204941
v -0.000000 4.342349 -0.347620
v 0.097166 4.320273 -0.347620
v 0.157218 4.286792 -0.348115
v 0.157218 4.210986 -0.353161
v 0.097166 4.123694 -0.347233
v -0.097166 4.126223 -0.347233
v -0.157218 4.208457 -0.353161
v -0.157218 4.286792 -0.348115
v -0.097166 4.320273 -0.347620
v 0.097151 4.230829 -0.485683
v 0.157203 4.197348 -0.486179
v 0.157203 4.167604 -0.491225
v 0.097151 4.105514 -0.485296
v -0.097181 4.108043 -0.485296
v -0.157233 4.165076 -0.491225
v -0.157233 4.197348 -0.486179
v -0.097181 4.230829 -0.485683
v 0.097129 4.105518 -0.613929
v 0.157181 4.089680 -0.614425
v 0.157181 4.059936 -0.619471
v 0.097129 4.025571 -0.613542
v -0.097204 4.028100 -0.613542
v -0.157256 4.057407 -0.619471
v -0.157256 4.089680 -0.614425
v -0.097204 4.105518 -0.613929
v 0.097083 3.869931 -0.786313
v 0.131839 3.866628 -0.787215
v 0.125387 3.841618 -0.791449
v 0.097083 3.822191 -0.785926
v -0.097249 3.824719 -0.785926
v -0.125553 3.839600 -0.791449
v -0.132005 3.866628 -0.787215
v -0.097249 3.869931 -0.786313
v 0.097166 3.734747 0.385412
v -0.000000 3.735636 0.385412
v -0.097166 3.734747 0.385412
v 0.097166 3.734747 -0.011974
v -0.000000 3.735636 -0.011974
v -0.097166 3.734747 -0.011974
v 0.040673 4.018322 -0.613542
v 0.035262 4.111550 -0.613929
v 0.062527 3.820808 -0.785926
v 0.059715 3.869446 -0.786313
v -0.008740 4.113138 -0.307513
v -0.011134 4.112937 -0.347233
v -0.008740 4.268529 -0.458505
v -0.020393 4.096185 -0.485296
v -0.011432 4.250311 -0.485683
v -0.032636 4.018128 -0.613542
v -0.027168 4.112346 -0.613929
v -0.054416 3.821891 -0.785926
v -0.051674 3.869339 -0.786313
v -0.000000 4.111807 -0.306220
v 0.016788 4.113933 -0.308286
v 0.016788 4.267404 -0.457412
v -0.000012 4.269746 -0.459688
v 0.019139 4.113676 -0.347233
v 0.028412 4.096688 -0.485296
v 0.019588 4.248451 -0.485683
vn 0.3090 0.9511 0.0000
vn 0.8090 0.5878 0.0000
vn 1.0000 -0.0000 0.0000
vn 0.8090 -0.5878 0.0000
vn 0.3090 -0.9511 0.0000
vn -0.3090 -0.9511 0.0000
vn -0.8090 -0.5878 0.0000
vn -1.0000 0.0000 0.0000
vn -0.0000 -0.0000 1.0000
vn -0.8090 0.5878 0.0000
vn -0.3090 0.9511 0.0000
vn -0.7733 0.5619 -0.2937
vn -0.3641 0.8906 0.2726
vn -0.9559 0.0000 -0.2937
vn -0.7733 -0.5619 -0.2937
vn -0.2954 -0.9091 -0.2937
vn 0.2954 -0.9091 -0.2937
vn 0.7733 -0.5619 -0.2937
vn 0.2954 0.9091 -0.2937
vn 0.9559 0.0000 -0.2937
vn 0.7733 0.5619 -0.2937
vn -0.2954 0.9091 -0.2937
vn -0.8778 -0.4205 0.2296
vn -0.8622 -0.4978 0.0942
vn 0.8622 -0.4978 0.0942
vn 0.3641 0.8906 0.2726
vn 0.3641 -0.8906 0.2726
vn 0.8622 0.4978 0.0942
vn -0.8622 0.4978 0.0942
vn -0.3641 -0.8906 0.2726
vn -0.0000 0.0000 -1.0000
vn 0.8778 -0.4205 0.2296
vn 0.4231 0.8585 0.2897
vn -0.9783 0.0000 0.2070
vn 0.4231 -0.8585 0.2897
vn 0.8778 0.4205 0.2296
vn -0.8778 0.4205 0.2296
vn -0.4231 -0.8585 0.2897
vn 0.9783 0.0000 0.2070
vn -0.4231 0.8585 0.2897
vn 0.9018 0.4321 -0.0000
vn -0.9018 0.4321 -0.0000
vn -0.4420 0.8970 0.0000
vn -0.9018 -0.4321 0.0000
vn 0.9018 -0.4321 0.0000
vn 0.4420 0.8970 0.0000
vn -0.8507 0.5115 -0.1212
vn -0.3217 -0.6528 -0.6859
vn -0.8046 -0.4769 -0.3539
vn 0.8046 -0.4769 -0.3539
vn 0.3217 -0.6528 -0.6859
vn -0.1526 -0.9882 0.0142
vn -0.2803 -0.8662 -0.4138
vn -0.4079 0.8279 -0.3850
vn -0.6973 -0.7089 -0.1060
vn 0.7122 -0.6943 -0.1038
vn 0.4079 0.8279 -0.3850
vn 0.2709 -0.8724 -0.4069
vn 0.8507 0.5115 -0.1212
vn 1.0000 0.0000 -0.0001
vn -0.3178 0.8828 -0.3459
vn -0.7049 -0.7033 -0.0925
vn 0.7329 -0.6745 -0.0888
vn 0.3178 0.8828 -0.3459
vn 0.1273 -0.9918 0.0142
vn 0.6634 0.7391 -0.1166
vn -0.6634 0.7391 -0.1166
vn -0.5381 -0.6802 0.4977
vn -0.1873 0.8244 -0.5341
vn -0.7555 -0.6394 0.1426
vn 0.7773 -0.6141 0.1368
vn 0.1873 0.8244 -0.5341
vn -1.0000 -0.0000 0.0001
vn 0.1263 -0.9835 0.1295
vn 0.4205 0.7615 -0.4934
vn -0.4205 0.7615 -0.4933
vn 0.4448 -0.5864 0.6770
vn 0.5770 -0.6592 0.4821
vn -1.0000 -0.0000 0.0002
vn 0.1083 -0.8436 0.5259
vn 0.2859 0.7093 -0.6443
vn -0.2860 0.7093 -0.6443
vn 1.0000 0.0000 -0.0002
vn -0.1176 0.6966 -0.7078
vn -0.9941 -0.1031 -0.0324
vn 0.0615 -0.6489 0.7584
vn 0.1082 0.5940 -0.7972
vn -0.1082 0.5940 -0.7972
vn 0.9933 -0.1139 -0.0189
vn -0.0316 0.5853 -0.8102
vn -0.3906 -0.6001 0.6981
vn -0.0091 -1.0000 0.0000
vn 0.0091 -1.0000 0.0000
vn -0.9965 -0.0581 -0.0598
vn 0.0000 -0.6969 -0.7172
vn 0.0328 0.5860 -0.8096
vn -0.1299 -0.8414 0.5245
vn -0.0773 -0.6489 0.7570
vn 0.0399 0.0170 -0.9991
vn -0.0462 0.0200 -0.9987
vn 0.1184 0.6979 -0.7063
vn 0.9965 -0.0581 -0.0598
vn -0.1513 -0.9800 0.1291
usemtl Material.006
s off
f 91//66 92//66 94//66 93//66
f 93//67 94//67 96//67 95//67
f 95//68 96//68 98//68 97//68
f 97//69 98//69 100//69 99//69
f 99//70 100//70 102//70 101//70
f 101//71 102//71 104//71 103//71
f 103//72 104//72 106//72 105//72
f 105//73 106//73 108//73 107//73
f 94//74 92//74 110//74 108//74 106//74 104//74 102//74 100//74 98//74 96//74
f 107//75 108//75 110//75 109//75
f 109//76 110//76 92//76 91//76
f 107//77 109//77 122//77 121//77
f 97//74 95//74 111//74 112//74
f 122//78 113//78 123//78 132//78
f 105//79 107//79 121//79 120//79
f 103//80 105//80 120//80 119//80
f 101//81 103//81 119//81 118//81
f 99//82 101//82 118//82 117//82
f 97//83 99//83 117//83 116//83
f 91//84 93//84 114//84 113//84
f 95//85 97//85 116//85 115//85
f 93//86 95//86 115//86 114//86
f 109//87 91//87 113//87 122//87
f 129//88 130//88 140//88 139//88
f 119//89 120//89 130//89 129//89
f 116//90 117//90 127//90 126//90
f 113//91 114//91 124//91 123//91
f 120//73 121//73 131//73 130//73
f 117//92 118//92 128//92 127//92
f 114//93 115//93 125//93 124//93
f 121//94 122//94 132//94 131//94
f 118//95 119//95 129//95 128//95
f 115//68 116//68 126//68 125//68
f 148//96 147//96 209//96 210//96
f 126//97 127//97 137//97 136//97
f 123//98 124//98 134//98 133//98
f 130//99 131//99 141//99 140//99
f 127//100 128//100 138//100 137//100
f 124//101 125//101 135//101 134//101
f 131//102 132//102 142//102 141//102
f 128//103 129//103 139//103 138//103
f 125//104 126//104 136//104 135//104
f 132//105 123//105 133//105 142//105
f 144//106 145//106 155//106 154//106
f 134//106 135//106 145//106 144//106
f 141//107 142//107 152//107 151//107
f 137//74 138//74 207//74 206//74
f 135//68 136//68 146//68 145//68
f 142//108 133//108 143//108 152//108
f 139//109 140//109 150//109 149//109
f 136//110 137//110 147//110 146//110
f 133//111 134//111 144//111 143//111
f 140//73 141//73 151//73 150//73
f 161//112 162//112 172//112 171//112
f 151//107 152//107 162//107 161//107
f 148//113 149//113 159//113 158//113
f 145//68 146//68 156//68 155//68
f 152//108 143//108 153//108 162//108
f 149//114 150//114 160//114 159//114
f 146//115 147//115 157//115 156//115
f 143//111 144//111 154//111 153//111
f 150//73 151//73 161//73 160//73
f 147//116 148//116 158//116 157//116
f 168//117 169//117 178//117 217//117 216//117 225//117
f 158//118 159//118 169//118 168//118
f 155//68 156//68 166//68 165//68
f 162//119 153//119 163//119 172//119
f 159//120 160//120 170//120 169//120
f 156//121 157//121 167//121 166//121
f 153//122 154//122 164//122 163//122
f 160//73 161//73 171//73 170//73
f 157//123 158//123 168//123 167//123
f 154//124 155//124 165//124 164//124
f 175//125 176//125 184//125 183//125
f 165//68 166//68 176//68 175//68
f 172//126 163//126 173//126 181//126
f 169//127 170//127 179//127 178//127
f 166//128 167//128 177//128 176//128
f 163//129 164//129 174//129 173//129
f 170//73 171//73 180//73 179//73
f 167//130 168//130 225//130 226//130 229//130 177//130
f 164//131 165//131 175//131 174//131
f 171//132 172//132 181//132 180//132
f 186//133 187//133 195//133 194//133
f 181//134 173//134 228//134 218//134 220//134 189//134
f 178//135 179//135 187//135 186//135
f 176//136 177//136 185//136 184//136
f 173//137 174//137 182//137 231//137 227//137 228//137
f 179//138 180//138 188//138 187//138
f 177//139 229//139 230//139 185//139
f 174//140 175//140 183//140 182//140
f 180//141 181//141 189//141 188//141
f 192//142 193//142 201//142 200//142
f 184//143 185//143 193//143 192//143
f 187//144 188//144 196//144 195//144
f 185//145 230//145 212//145 193//145
f 182//146 183//146 191//146 190//146
f 188//147 189//147 197//147 196//147
f 183//148 184//148 192//148 191//148
f 189//149 220//149 222//149 197//149
f 195//150 196//150 204//150 203//150
f 193//151 212//151 214//151 201//151
f 190//152 191//152 199//152 198//152
f 196//153 197//153 205//153 204//153
f 191//154 192//154 200//154 199//154
f 197//155 222//155 224//155 205//155
f 194//156 195//156 203//156 202//156
f 206//157 207//157 210//157 209//157
f 207//158 208//158 211//158 210//158
f 147//68 137//68 206//68 209//68
f 138//74 139//74 208//74 207//74
f 139//73 149//73 211//73 208//73
f 149//96 148//96 210//96 211//96
f 226//159 227//159 231//159 213//159 215//159 214//159 212//159 230//159 229//159
f 216//160 218//160 228//160 227//160 226//160 225//160
f 215//161 213//161 190//161 198//161
f 221//162 219//162 186//162 194//162
f 223//163 221//163 194//163 202//163
f 224//164 223//164 202//164 203//164 204//164 205//164
f 214//165 215//165 198//165 199//165 200//165 201//165
f 213//166 231//166 182//166 190//166
f 218//167 216//167 217//167 219//167 221//167 223//167 224//167 222//167 220//167
f 219//168 217//168 178//168 186//168
