# Blender v2.79 (sub 0) OBJ File: 'Ikea kast.blend'
# www.blender.org
mtllib kast.mtl
o Cube.005
v 0.992915 3.643229 -0.995618
v 0.992915 3.643229 0.989193
v -0.997469 3.643229 0.989193
v -0.997468 3.643229 -0.995618
v 0.992915 3.703228 -0.995618
v 0.992915 3.703228 0.989193
v -0.997469 3.703228 0.989193
v -0.997468 3.703228 -0.995618
vt 0.749957 0.999913
vt 0.000087 0.999913
vt 0.000087 0.000087
vt 0.749957 0.000087
vt 0.749957 0.999913
vt 0.749957 0.000087
vt 0.000087 0.000087
vt 0.000087 0.999913
vn 0.0000 -1.0000 -0.0000
vn 0.0000 1.0000 0.0000
vn 1.0000 0.0000 0.0000
vn 0.0000 0.0000 -1.0000
vn -0.0000 0.0000 1.0000
vn -1.0000 0.0000 -0.0000
usemtl Material
s off
f 1/1/1 2/2/1 3/3/1 4/4/1
f 5/5/2 8/6/2 7/7/2 6/8/2
f 2/2/3 1/1/3 5/5/3 6/8/3
f 1/1/4 4/4/4 8/6/4 5/5/4
f 3/3/5 2/2/5 6/8/5 7/7/5
f 4/4/6 3/3/6 7/7/6 8/6/6
o Cube.004
v 0.986251 2.490951 -0.983182
v 0.986251 2.490951 1.001629
v -1.004132 2.490951 1.001629
v -1.004132 2.490951 -0.983182
v 0.986251 2.550951 -0.983182
v 0.986251 2.550951 1.001629
v -1.004132 2.550951 1.001629
v -1.004132 2.550951 -0.983182
vt 0.749957 0.999913
vt 0.000087 0.999913
vt 0.000087 0.000087
vt 0.749957 0.000087
vt 0.749957 0.999913
vt 0.749957 0.000087
vt 0.000087 0.000087
vt 0.000087 0.999913
vn 0.0000 -1.0000 0.0000
vn 0.0000 1.0000 0.0000
vn 1.0000 0.0000 0.0000
vn 0.0000 0.0000 -1.0000
vn -0.0000 0.0000 1.0000
vn -1.0000 0.0000 -0.0000
usemtl Material
s off
f 9/9/7 10/10/7 11/11/7 12/12/7
f 13/13/8 16/14/8 15/15/8 14/16/8
f 10/10/9 9/9/9 13/13/9 14/16/9
f 9/9/10 12/12/10 16/14/10 13/13/10
f 11/11/11 10/10/11 14/16/11 15/15/11
f 12/12/12 11/11/12 15/15/12 16/14/12
o Cube.003
v -0.993865 4.874944 -0.989030
v -0.993866 4.874944 0.978514
v 0.987384 4.874944 0.978515
v 0.987385 4.874944 -0.989030
v -0.993865 4.814944 -0.989030
v -0.993866 4.814946 0.978514
v 0.987384 4.814944 0.978515
v 0.987385 4.814946 -0.989030
vt 0.749957 0.999913
vt 0.000087 0.999913
vt 0.000087 0.000087
vt 0.749956 0.000087
vt 0.749957 0.999913
vt 0.749956 0.000087
vt 0.000087 0.000087
vt 0.000087 0.999913
vn 0.0000 1.0000 -0.0000
vn -0.0000 -1.0000 -0.0000
vn -1.0000 0.0000 -0.0000
vn -0.0000 0.0000 1.0000
vn 0.0000 0.0000 -1.0000
vn 1.0000 0.0000 0.0000
usemtl Material
s off
f 20/17/13 17/18/13 18/19/13 19/20/13
f 24/21/14 23/22/14 22/23/14 21/24/14
f 18/19/15 17/18/15 21/24/15 22/23/15
f 19/20/16 18/19/16 22/23/16 23/22/16
f 17/18/17 20/17/17 24/21/17 21/24/17
f 20/17/18 19/20/18 23/22/18 24/21/18
o Cube.002
v 0.990383 1.306075 -0.991763
v 0.990383 1.306075 0.993047
v -1.000000 1.306075 0.993047
v -1.000000 1.306075 -0.991764
v 0.990383 1.366075 -0.991763
v 0.990383 1.366075 0.993047
v -1.000000 1.366075 0.993047
v -1.000000 1.366075 -0.991764
vt 0.749957 0.999913
vt 0.000087 0.999913
vt 0.000087 0.000087
vt 0.749957 0.000087
vt 0.749957 0.999913
vt 0.749957 0.000087
vt 0.000087 0.000087
vt 0.000087 0.999913
vn 0.0000 -1.0000 -0.0000
vn 0.0000 1.0000 0.0000
vn 1.0000 0.0000 0.0000
vn 0.0000 0.0000 -1.0000
vn -0.0000 0.0000 1.0000
vn -1.0000 0.0000 -0.0000
usemtl Material
s off
f 25/25/19 26/26/19 27/27/19 28/28/19
f 29/29/20 32/30/20 31/31/20 30/32/20
f 26/26/21 25/25/21 29/29/21 30/32/21
f 25/25/22 28/28/22 32/30/22 29/29/22
f 27/27/23 26/26/23 30/32/23 31/31/23
f 28/28/24 27/27/24 31/31/24 32/30/24
o Cube
v 1.000000 0.000000 -1.000000
v 1.000000 0.000000 1.000000
v -1.000000 0.000000 1.000000
v -1.000000 0.000000 -1.000000
v 1.000000 6.000000 -0.999999
v 0.999999 6.000000 1.000001
v -1.000000 6.000000 1.000000
v -1.000000 6.000000 -1.000000
v 1.000000 0.106062 -0.964646
v 1.000000 0.106062 0.964646
v -0.971133 0.086602 0.971132
v -0.971132 0.086602 -0.971133
v 1.000000 5.893938 -0.964645
v 0.999999 5.893938 0.964646
v -0.971133 5.913398 0.971132
v -0.971132 5.913398 -0.971133
vt 0.749957 0.999913
vt 0.000087 0.999913
vt 0.000087 0.000087
vt 0.749957 0.000087
vt 0.749957 0.999913
vt 0.000087 0.999913
vt 0.000087 0.000087
vt 0.749956 0.000087
vt 0.749957 0.000087
vt 0.749956 0.999913
vt 0.000087 0.999913
vt 0.000087 0.999913
vt 0.749957 0.000087
vt 0.749957 0.999913
vt 0.749957 0.000087
vt 0.000087 0.999913
vt 0.000087 0.000087
vt 0.749957 0.999913
vt 0.749957 0.000087
vt 0.000087 0.000087
vt 0.000087 0.999913
vt 0.749957 0.999913
vt 0.749956 0.000087
vt 0.000087 0.000087
vt 0.000087 0.999913
vt 0.749957 0.000087
vt 0.000087 0.999913
vt 0.749956 0.999913
vt 0.000087 0.999913
vt 0.749957 0.999913
vt 0.749957 0.000087
vt 0.749957 0.000087
vt 0.000087 0.000087
vt 0.000087 0.999913
vn 0.0000 -1.0000 0.0000
vn 0.0000 1.0000 0.0000
vn -0.0000 -0.0000 1.0000
vn -1.0000 -0.0000 -0.0000
vn 0.0000 0.0000 -1.0000
vn -0.0099 1.0000 0.0000
vn -0.0099 -1.0000 0.0000
vn -0.0033 0.0000 -1.0000
vn 1.0000 0.0000 0.0000
vn -0.0033 -0.0000 1.0000
usemtl Material
s off
f 33/33/25 34/34/25 35/35/25 36/36/25
f 37/37/26 40/38/26 39/39/26 38/40/26
f 34/41/27 38/42/27 39/43/27 35/35/27
f 35/44/28 39/39/28 40/45/28 36/46/28
f 37/47/29 33/33/29 36/48/29 40/49/29
f 41/50/30 44/51/30 43/52/30 42/53/30
f 45/54/31 46/55/31 47/56/31 48/57/31
f 42/58/32 43/52/32 47/59/32 46/60/32
f 43/61/33 44/62/33 48/63/33 47/56/33
f 45/64/34 48/65/34 44/66/34 41/50/34
f 34/34/33 33/33/33 41/50/33 42/53/33
f 33/33/33 37/47/33 45/64/33 41/50/33
f 38/42/33 34/41/33 42/58/33 46/60/33
f 37/37/33 38/40/33 46/55/33 45/54/33
