# Blender v2.79 (sub 0) OBJ File: 'BasicChair finishedscene-2.blend'
# www.blender.org
mtllib BasicChair finishedscene-2.mtl
o Cube
v 1.000000 -0.132336 -1.000000
v 1.000000 -0.132336 1.000000
v -1.000000 -0.132336 1.000000
v -1.000000 -0.132336 -1.000000
v 1.000000 0.132336 -0.999999
v 0.999999 0.132336 1.000001
v -1.000000 0.132336 1.000000
v -1.000000 0.132336 -1.000000
v -0.888158 -0.132336 -1.000000
v -0.888158 -0.132336 1.000000
v -0.888158 0.132336 -1.000000
v -0.888158 0.132336 1.000000
v 0.900185 -0.132336 -1.000000
v 0.900185 -0.132336 1.000000
v 0.900185 0.132336 -1.000000
v 0.900184 0.132336 1.000001
v 1.000000 -0.132336 0.901961
v -1.000000 -0.132336 0.901961
v 0.999999 0.132336 0.901961
v -1.000000 0.132336 0.901960
v -0.888158 -0.132336 0.901961
v -0.888158 0.132336 0.901960
v 0.900185 -0.132336 0.901961
v 0.900184 0.132336 0.901961
v 1.000000 -0.132336 -0.889269
v -1.000000 -0.132336 -0.889270
v 1.000000 0.132336 -0.889269
v -1.000000 0.132336 -0.889269
v -0.888158 -0.132336 -0.889270
v -0.888158 0.132336 -0.889269
v 0.900185 -0.132336 -0.889269
v 0.900185 0.132336 -0.889269
v 0.900185 -1.592356 -0.889269
v 1.000000 -1.592356 -0.889269
v -0.888158 -1.592356 -0.889270
v -1.000000 -1.592356 -0.889270
v 0.900185 -1.592356 -1.000000
v -0.888158 -1.592356 -1.000000
v -1.000000 -1.592356 -1.000000
v 1.000000 -1.592356 -1.000000
v 0.900185 -1.592356 0.901961
v 1.000000 -1.592356 0.901961
v -0.888158 -1.592356 0.901961
v -1.000000 -1.592356 0.901961
v 0.900185 -1.592356 1.000000
v -0.888158 -1.592356 1.000000
v -1.000000 -1.592356 1.000000
v 1.000000 -1.592356 1.000000
v -0.888158 2.300682 -0.889269
v 0.900185 2.300682 -0.889269
v 1.000000 2.300682 -0.889269
v -1.000000 2.300682 -0.889269
v -1.000000 2.300682 -1.000000
v 1.000000 2.300682 -0.999999
v 0.900185 2.300682 -1.000000
v -0.888158 2.300682 -1.000000
vn 0.0000 0.0000 1.0000
vn 0.0000 0.0000 -1.0000
vn 1.0000 0.0000 0.0000
vn -1.0000 -0.0000 0.0000
vn 0.0000 1.0000 -0.0000
vn 0.0000 -1.0000 0.0000
usemtl Material
s off
f 12//1 7//1 3//1 10//1
f 9//2 4//2 8//2 11//2
f 6//1 16//1 14//1 2//1
f 16//1 12//1 10//1 14//1
f 1//2 13//2 15//2 5//2
f 13//2 9//2 11//2 15//2
f 19//3 6//3 2//3 17//3
f 7//4 20//4 18//4 3//4
f 20//5 7//5 12//5 22//5
f 10//6 21//6 23//6 14//6
f 24//5 16//5 6//5 19//5
f 22//5 12//5 16//5 24//5
f 25//3 1//3 5//3 27//3
f 27//3 19//3 17//3 25//3
f 20//4 28//4 26//4 18//4
f 28//4 8//4 4//4 26//4
f 18//6 26//6 29//6 21//6
f 28//5 20//5 22//5 30//5
f 23//6 31//6 25//6 17//6
f 21//6 29//6 31//6 23//6
f 29//6 9//6 13//6 31//6
f 32//5 24//5 19//5 27//5
f 30//5 22//5 24//5 32//5
f 25//1 31//1 33//1 34//1
f 29//1 26//1 36//1 35//1
f 31//4 13//4 37//4 33//4
f 9//3 29//3 35//3 38//3
f 26//4 4//4 39//4 36//4
f 1//3 25//3 34//3 40//3
f 23//2 17//2 42//2 41//2
f 18//2 21//2 43//2 44//2
f 14//4 23//4 41//4 45//4
f 21//3 10//3 46//3 43//3
f 3//4 18//4 44//4 47//4
f 17//3 2//3 48//3 42//3
f 2//1 14//1 45//1 48//1
f 13//2 1//2 40//2 37//2
f 10//1 3//1 47//1 46//1
f 4//2 9//2 38//2 39//2
f 33//6 37//6 40//6 34//6
f 36//6 39//6 38//6 35//6
f 45//6 41//6 42//6 48//6
f 47//6 44//6 43//6 46//6
f 30//1 32//1 50//1 49//1
f 32//1 27//1 51//1 50//1
f 28//1 30//1 49//1 52//1
f 8//4 28//4 52//4 53//4
f 27//3 5//3 54//3 51//3
f 5//2 15//2 55//2 54//2
f 15//2 11//2 56//2 55//2
f 11//2 8//2 53//2 56//2
f 56//5 49//5 50//5 55//5
f 55//5 50//5 51//5 54//5
f 53//5 52//5 49//5 56//5
