# Blender v2.79 (sub 0) OBJ File: ''
# www.blender.org
mtllib tafelpoot.mtl
o Cube.004
v 0.664535 0.021567 -0.188091
v 0.664535 2.403132 -0.188091
v 0.664535 0.021567 0.209838
v 0.664535 2.403132 0.209838
v 1.017467 0.021567 -0.188091
v 1.017467 2.403132 -0.188091
v 1.017467 0.021567 0.209838
v 1.017467 2.403132 0.209838
vn -1.0000 0.0000 0.0000
vn 0.0000 0.0000 1.0000
vn 1.0000 0.0000 0.0000
vn 0.0000 0.0000 -1.0000
vn 0.0000 -1.0000 0.0000
vn 0.0000 1.0000 0.0000
usemtl Material.002
s off
f 1//1 3//1 4//1 2//1
f 3//2 7//2 8//2 4//2
f 7//3 5//3 6//3 8//3
f 5//4 1//4 2//4 6//4
f 3//5 1//5 5//5 7//5
f 8//6 6//6 2//6 4//6
